<?xml version="1.0" encoding="utf-8"?>
<svg id="Capa_1" enable-background="new 0 0 437.499 437.499" height="512" viewBox="0 0 437.499 437.499" width="512" xmlns="http://www.w3.org/2000/svg" xmlns:bx="https://boxy-svg.com">
  <path d="m46.875 437.498c-2.67 0-5.341-.687-7.751-2.06-4.868-2.777-7.874-7.95-7.874-13.566v-406.27c0-5.616 3.006-10.789 7.874-13.566 4.913-2.762 10.88-2.701 15.701.107l343.749 203.136c4.761 2.823 7.675 7.935 7.675 13.459s-2.914 10.636-7.675 13.459l-343.749 203.135c-2.457 1.435-5.204 2.167-7.95 2.166zm15.625-394.521v351.521l297.409-175.76z" style="fill: rgb(13, 13, 13);"/>
  <path d="M 213.963 26.18 L 413.892 372.467 L 14.034 372.467 L 213.963 26.18 Z" style="" transform="matrix(0.868454, -0.49577, 0.49577, 0.868454, -140.107437, 99.066849)" bx:shape="triangle 14.034 26.18 399.858 346.287 0.5 0 1@4c3843ab"/>
  <line style="stroke: rgb(0, 0, 0);" x1="71.79037315911097" y1="95.15744445512806" x2="286.8799666855783" y2="233.10757367373682"/>
  <line style="stroke: rgb(0, 0, 0);" x1="68.41200049972471" y1="59.12148374107548" x2="328.54652343965654" y2="208.89592263731146"/>
  <line style="stroke: rgb(0, 0, 0); stroke-width: 27px;" x1="70.66425609901597" y1="72.0719104787977" x2="319.5375440006941" y2="214.52654015643836"/>
  <line style="stroke: rgb(0, 0, 0); stroke-width: 13px;" x1="76.85792677841505" y1="69.88223118788257" x2="227.75848273474602" y2="154.34149397478586"/>
</svg>