<svg id="Capa_1" enable-background="new 0 0 462 462" height="512" viewBox="0 0 462 462" width="512" xmlns="http://www.w3.org/2000/svg" ><path d="m264 66h33v99h-33z"/><path d="m457.166 103.834-99-99c-3.094-3.094-7.283-4.834-11.666-4.834h-330c-9.12 0-16.5 7.38-16.5 16.5v429c0 9.12 7.38 16.5 16.5 16.5h429c9.12 0 16.5-7.38 16.5-16.5v-330c0-4.383-1.741-8.572-4.834-11.666zm-325.166-70.834h198v165h-198zm297 396h-396v-396h66v181.5c0 9.12 7.38 16.5 16.5 16.5h231c9.12 0 16.5-7.38 16.5-16.5v-158.168l66 66z"/></svg>